<?xml version="1.0" encoding="UTF-8" standalone="no"?>
<svg
   version="1.1"
   id="svg2"
   xml:space="preserve"
   width="169.99994"
   height="38.161098"
   viewBox="0 0 169.99994 38.161099"
   sodipodi:docname="Skillko logo_small.svg"
   inkscape:version="1.2 (dc2aedaf03, 2022-05-15)"
   xmlns:inkscape="http://www.inkscape.org/namespaces/inkscape"
   xmlns:sodipodi="http://sodipodi.sourceforge.net/DTD/sodipodi-0.dtd"
   xmlns="http://www.w3.org/2000/svg"
   xmlns:svg="http://www.w3.org/2000/svg"
   xmlns:rdf="http://www.w3.org/1999/02/22-rdf-syntax-ns#"
   xmlns:cc="http://creativecommons.org/ns#"
   xmlns:dc="http://purl.org/dc/elements/1.1/"><metadata
     id="metadata8"><rdf:RDF><cc:Work
         rdf:about=""><dc:format>image/svg+xml</dc:format><dc:type
           rdf:resource="http://purl.org/dc/dcmitype/StillImage" /></cc:Work></rdf:RDF></metadata><defs
     id="defs6" /><sodipodi:namedview
     pagecolor="#ffffff"
     bordercolor="#666666"
     borderopacity="1"
     objecttolerance="10"
     gridtolerance="10"
     guidetolerance="10"
     inkscape:pageopacity="0"
     inkscape:pageshadow="2"
     inkscape:window-width="640"
     inkscape:window-height="480"
     id="namedview4"
     inkscape:showpageshadow="2"
     inkscape:pagecheckerboard="0"
     inkscape:deskcolor="#d1d1d1"
     showgrid="false"
     inkscape:zoom="2.8246199"
     inkscape:cx="93.817933"
     inkscape:cy="17.878512"
     inkscape:current-layer="g10" /><g
     id="g10"
     inkscape:groupmode="layer"
     inkscape:label="ink_ext_XXXXXX"
     transform="matrix(1.3333333,0,0,-1.3333333,-829.81331,224.4352)"><g
       id="g12"
       transform="matrix(0.00929151,0,0,0.00929151,622.36,139.70558)"><path
         d="m 980.652,2097.15 353.038,192.21 z m 0,0 c -27.457,47.07 -66.683,78.45 -113.75,105.91 -62.765,27.46 -121.605,39.22 -180.445,31.38 -50.992,-7.84 -94.141,-31.38 -129.441,-66.69 -35.309,-35.3 -54.922,-78.45 -58.84,-129.44 -3.926,-35.3 0,-70.6 15.683,-98.07 11.774,-27.45 35.309,-58.84 70.614,-90.22 27.457,-19.61 58.836,-35.3 86.293,-47.07 43.148,-15.69 78.457,-27.45 121.605,-39.23 54.914,-15.69 109.832,-27.45 164.746,-50.99 62.763,-23.54 125.523,-58.84 184.363,-109.83 90.22,-70.61 156.91,-152.98 200.05,-251.05 47.08,-105.91 62.77,-203.97 54.92,-309.89 C 1380.76,888.98 1321.92,755.609 1216.01,641.859 1117.95,535.941 984.578,465.34 823.746,445.73 682.539,426.109 529.551,445.73 392.262,512.41 266.738,571.25 149.063,669.309 78.4492,806.609 54.918,849.762 43.1484,881.141 27.457,924.289 15.6914,959.59 7.84375,1002.74 0,1053.73 l 396.184,54.92 c 3.925,-27.46 11.769,-47.07 15.691,-58.84 3.926,-11.77 7.844,-31.38 19.617,-50.99 35.301,-58.84 78.449,-101.988 133.367,-125.531 66.68,-31.379 141.211,-43.148 207.895,-31.379 62.766,11.77 109.832,35.301 152.988,78.449 39.223,39.231 62.758,90.221 70.602,152.991 0,43.14 -3.918,78.45 -19.61,113.75 -15.691,35.31 -39.226,74.53 -86.3,101.99 -23.532,27.46 -54.914,39.22 -82.371,51 -43.157,15.68 -78.458,27.45 -121.606,39.22 -58.84,11.77 -113.758,31.38 -164.75,50.99 -66.684,23.54 -125.523,62.77 -188.281,109.83 -86.297,70.61 -141.215,145.14 -184.363,235.37 -43.149,98.06 -62.7661,196.12 -54.9224,294.19 11.7734,137.29 74.5314,270.66 172.5974,376.57 94.141,94.15 215.746,164.75 368.727,184.37 137.289,19.61 278.504,-3.93 404.025,-62.77 121.61,-58.84 219.67,-149.06 294.2,-278.5 L 980.652,2097.15"
         style="fill:#696b6a;fill-opacity:1;fill-rule:nonzero;stroke:none"
         id="path14" /><path
         d="m 2063.29,2614.93 h 400.11 z m 400.11,0 v -862.97 l 608.01,862.97 h 490.32 L 2785.06,1508.76 3616.65,426.109 H 3110.63 L 2541.85,1163.56 2463.4,1053.73 V 426.109 H 2063.29 V 2614.93 h 400.11"
         style="fill:#696b6a;fill-opacity:1;fill-rule:nonzero;stroke:none"
         id="path16" /><path
         d="m 4267.85,2634.55 h 400.11 z m 400.11,0 V 426.109 H 4267.85 V 2634.55 h 400.11"
         style="fill:#696b6a;fill-opacity:1;fill-rule:nonzero;stroke:none"
         id="path18" /><path
         d="m 5754.52,2634.55 h -400.1 z m 0,0 V 834.059 h 737.45 v -404.02 h -737.45 v -3.93 h -400.1 V 2634.55 h 400.1"
         style="fill:#696b6a;fill-opacity:1;fill-rule:nonzero;stroke:none"
         id="path20" /><path
         d="m 7523.63,2634.55 h -400.11 z m 0,0 V 834.059 h 737.45 v -404.02 h -737.45 v -3.93 H 7123.52 V 2634.55 h 400.11"
         style="fill:#696b6a;fill-opacity:1;fill-rule:nonzero;stroke:none"
         id="path22" /><path
         d="m 8892.62,2614.93 h 400.11 z m 400.11,0 v -862.97 l 608.01,862.97 h 490.36 L 9614.38,1508.76 10446,426.109 h -506.04 l -568.78,737.451 -78.45,-109.83 V 426.109 H 8892.62 V 2614.93 h 400.11"
         style="fill:#696b6a;fill-opacity:1;fill-rule:nonzero;stroke:none"
         id="path24" /><path
         d="m 13007.2,1540.14 c 0,-455.64 -369.4,-824.999 -825,-824.999 -455.6,0 -825,369.359 -825,824.999 0,455.63 369.4,825 825,825 455.6,0 825,-369.37 825,-825"
         style="fill:#7ed2b3;fill-opacity:1;fill-rule:nonzero;stroke:none"
         id="path26" /><path
         d="m 12660.5,1540.14 c 0,-264.18 -214.1,-478.34 -478.3,-478.34 -264.2,0 -478.3,214.16 -478.3,478.34 0,264.17 214.1,478.33 478.3,478.33 264.2,0 478.3,-214.16 478.3,-478.33"
         style="fill:#696b6a;fill-opacity:1;fill-rule:nonzero;stroke:none"
         id="path28" /><path
         d="m 13079.5,2207.06 38,-50.8 302.6,302.59 -30.8,38.45 c -36.9,45.93 -76.6,90.31 -118.2,131.9 -295.1,295.12 -671.7,451.12 -1088.9,451.12 -417.3,0 -793.8,-156 -1088.9,-451.12 -41.6,-41.63 -81.4,-86.01 -118.2,-131.91 l -30.8,-38.45 305.1,-305.14 38.1,50.31 c 32.7,43.13 68.9,84.63 107.7,123.34 215,215.1 494.5,333.56 787,333.56 300.6,0 574.9,-115.34 793.1,-333.55 37.2,-37.29 72.3,-77.76 104.2,-120.3"
         style="fill:#696b6a;fill-opacity:1;fill-rule:nonzero;stroke:none"
         id="path30" /><path
         d="m 13523.5,2300.56 -35.8,62.4 -310.3,-310.38 16.7,-35.1 c 72.1,-150.95 108.7,-311.51 108.7,-477.19 0,-304.56 -113.3,-578.802 -327.5,-793.071 -190.1,-190.098 -430.4,-301.957 -694.9,-323.5 l -50.5,-4.11 V 0 l 58.6,3.80859 c 374.4,24.37111 714.2,179.14041 982.6,447.58241 295.1,295.109 451.1,671.649 451.1,1088.909 0,274.36 -66.8,530.15 -198.7,760.26"
         style="fill:#696b6a;fill-opacity:1;fill-rule:nonzero;stroke:none"
         id="path32" /><path
         d="m 11395.1,747.219 c -218.2,218.211 -333.5,492.451 -333.5,793.071 0,165.71 37,325.62 110,475.28 l 17.2,35.26 -312.2,312.13 -35.7,-62.41 c -131.9,-230.1 -198.7,-485.89 -198.7,-760.25 0,-417.24 156,-793.769 451.1,-1088.909 263.2,-263.2 595.7,-417.4691 961.7,-446.10194 l 59.2,-4.640622 V 420.719 l -49.1,5.269 c -251.9,27.024 -489.8,141.102 -670,321.231"
         style="fill:#696b6a;fill-opacity:1;fill-rule:nonzero;stroke:none"
         id="path34" /></g></g></svg>
